# xmcd
# 
# Track frame offsets:
#     150
#     10359
#     22009
#     37070
#     47415
#     57250
#     69214
#     78885
#     88995
#     101261
#     112611
#     124202
#     133656
# 
# Disc length: 1892
# 
# Revision: 0
# Processed by: cddbd v1.5.2PL0 Copyright (c) Steve Scherf et al.
# Submitted via: BonkEnc v1.0.15
# 
DISCID=a007620d
DTITLE=Johnny Cash - Walk the line
DYEAR=2010
DGENRE=Country
TTITLE0=I Was There When It Happened
TTITLE1=Doin My Time
TTITLE2=Rockabilly Blues
TTITLE3=There You Go
TTITLE4=Ballad Of A Teen Age Queen
TTITLE5=Give My Love to Rose
TTITLE6=The Great Speckled Bird
TTITLE7=The Ways Of A Woman In Love
TTITLE8=Next In Line
TTITLE9=Big River
TTITLE10=So Doggone Lonesome
TTITLE11=The Caretaker
TTITLE12=Country Boy
EXTD=
EXTT0=
EXTT1=
EXTT2=
EXTT3=
EXTT4=
EXTT5=
EXTT6=
EXTT7=
EXTT8=
EXTT9=
EXTT10=
EXTT11=
EXTT12=
PLAYORDER=
